<?xml version="1.0" encoding="UTF-8" standalone="no"?>
<!-- Created with Inkscape (http://www.inkscape.org/) -->

   <!-- width="69.787315mm"
   height="7.8812675mm" -->

<svg

   viewBox="0 0 69.787316 7.8812675"
   version="1.1"
   id="svg1"
   xml:space="preserve"
   sodipodi:docname="narrow2.svg"
   inkscape:export-filename="narrow3.svg"
   inkscape:export-xdpi="96"
   inkscape:export-ydpi="96"
   inkscape:version="1.3 (0e150ed6c4, 2023-07-21)"
   xmlns:inkscape="http://www.inkscape.org/namespaces/inkscape"
   xmlns:sodipodi="http://sodipodi.sourceforge.net/DTD/sodipodi-0.dtd"
   xmlns="http://www.w3.org/2000/svg"
   xmlns:svg="http://www.w3.org/2000/svg"><sodipodi:namedview
     id="namedview1"
     pagecolor="#505050"
     bordercolor="#eeeeee"
     borderopacity="1"
     inkscape:showpageshadow="0"
     inkscape:pageopacity="0"
     inkscape:pagecheckerboard="0"
     inkscape:deskcolor="#d1d1d1"
     inkscape:document-units="mm"
     inkscape:zoom="3.8595242"
     inkscape:cx="-26.557678"
     inkscape:cy="120.09252"
     inkscape:window-width="1366"
     inkscape:window-height="705"
     inkscape:window-x="-8"
     inkscape:window-y="-8"
     inkscape:window-maximized="1"
     inkscape:current-layer="layer1" /><defs
     id="defs1" /><g
     inkscape:label="Warstwa 1"
     inkscape:groupmode="layer"
     id="layer1"
     transform="translate(-11.598896,-133.07355)"><path
       style="fill:inherit;fill-opacity:1;"
       d="m 12.580266,140.65066 c 2.05211,0.92394 2.88432,-0.66818 3.88096,-1.92114 0.34983,2.64347 2.37234,2.44116 3.25946,1.28414 -0.48572,-0.23102 -0.91014,-0.30103 -0.98235,-0.63497 -0.3365,-1.55608 1.80806,-3.37339 5.59933,-3.05089 0.65336,0.0556 1.26094,0.0736 1.89161,0.30275 1.30598,0.4746 2.5992,1.36277 3.82118,1.88967 1.10489,0.47641 2.27037,0.6957 3.14444,0.6788 -0.60836,-0.95525 -0.75824,-1.54892 -0.42651,-2.01752 1.31689,-1.86025 4.62453,1.41724 6.47708,1.91982 4.77984,1.64071 9.16298,1.51772 13.84748,-0.32698 1.11173,-0.47116 3.2217,-1.72955 4.18718,-1.97851 1.49145,-0.38459 2.75481,-0.28042 2.81096,0.63356 0.0237,0.38495 -0.18384,0.87716 -0.55538,1.62449 2.28877,0.0953 4.38835,-1.20526 6.21799,-2.19478 1.60366,-0.8673 3.2843,-0.75601 4.64959,-0.64679 2.97283,0.23783 5.32892,2.74164 2.86283,3.70769 0.69164,0.64733 1.30309,0.72857 1.81702,0.59383 0.60229,-0.15791 1.06724,-0.64652 1.31937,-1.37818 0.048,-0.1394 0.14241,-0.42874 0.17313,-0.57411 0.98665,1.47918 2.81666,2.03216 4.0275,2.03768 0.32168,0.001 0.75805,-0.1996 0.74841,-0.63197 -0.0105,-0.47151 0.007,-1.20724 0.005,-2.01672 -0.003,-1.70937 -0.0136,-3.75874 -0.003,-4.42165 l -35.5297,-0.42583 -34.17084,0.75405 c 0.11337,1.97642 -0.46053,6.0426 0.92777,6.79356 z"
       id="path1"
       sodipodi:nodetypes="ccccssccscscsccsssscsssccccc"
       inkscape:export-filename="narrow2.svg"
       inkscape:export-xdpi="96"
       inkscape:export-ydpi="96" /></g></svg>
